<svg version="1.1" id="Layer_1" xmlns="http://www.w3.org/2000/svg" xmlns:xlink="http://www.w3.org/1999/xlink" x="0px" y="0px"
	 width="100%" viewBox="0 0 512 512" enable-background="new 0 0 512 512" xml:space="preserve">
<path fill="#7272D6" opacity="1.000000" stroke="none" 
	d="
M1.000002,345.000000 
	C1.000000,303.312439 1.000000,261.624878 1.277633,219.800415 
	C2.034374,218.867813 2.659069,218.125137 2.971079,217.268555 
	C9.120723,200.386322 26.905828,186.796432 45.050835,187.897812 
	C53.978195,188.439697 62.971210,187.899887 72.403641,187.905594 
	C195.106659,187.972931 317.340546,187.984528 439.574432,187.989502 
	C440.404694,187.989532 441.234985,187.898193 442.526001,187.913010 
	C450.281738,187.984528 457.577087,187.953568 464.871613,188.015289 
	C469.166229,188.051636 473.619263,187.536835 477.725464,188.475403 
	C493.956848,192.185455 505.032257,202.087967 511.066925,217.641724 
	C511.303925,218.252533 512.337524,218.554260 513.000000,219.000000 
	C513.000000,260.687561 513.000000,302.375122 512.725708,344.196106 
	C511.979004,344.958069 511.298584,345.517853 511.064636,346.225311 
	C505.492096,363.076294 487.136169,377.316559 468.943298,376.110657 
	C460.024139,375.519440 451.027313,376.100098 441.598083,376.094299 
	C318.895569,376.026886 196.660645,376.015289 74.425728,376.010345 
	C73.595459,376.010315 72.765190,376.101776 71.474136,376.087006 
	C63.044945,376.015503 55.074898,376.100159 47.108810,375.959930 
	C43.201355,375.891144 39.213573,375.826172 35.413036,375.034821 
	C19.215107,371.662018 8.996351,361.351196 2.927938,346.377411 
	C2.677453,345.759308 1.660085,345.452057 1.000002,345.000000 
M230.904526,238.605743 
	C233.542740,240.088608 236.076981,242.581726 238.838562,242.865967 
	C247.315048,243.738419 252.920135,235.702515 250.531799,226.373947 
	C247.484848,214.472992 238.977722,207.345352 228.023376,203.459061 
	C211.602264,197.633270 194.917831,197.968781 178.695297,204.440781 
	C164.331223,210.171326 156.838531,221.484604 156.921310,235.983368 
	C157.003113,250.312271 164.479202,261.160217 178.899872,266.779907 
	C186.313126,269.668854 194.093124,271.609711 201.683212,274.053986 
	C208.781845,276.340057 216.288864,277.877289 222.823471,281.270630 
	C232.034576,286.053864 233.479782,296.732666 227.380249,304.738251 
	C218.828964,315.961731 189.976730,318.371216 181.734146,301.757507 
	C179.961151,298.183899 178.386063,294.509766 176.545929,290.972382 
	C173.234329,284.606262 168.130844,282.199066 162.245300,284.050934 
	C156.600677,285.826996 153.476395,291.261383 154.648193,298.041199 
	C156.942368,311.315002 164.454132,321.224915 176.446167,326.689209 
	C196.291199,335.731720 216.648666,335.646149 236.253830,325.858704 
	C252.834625,317.581116 260.230743,299.334778 255.428909,281.414520 
	C251.883209,268.182129 241.885574,261.599579 230.000443,257.519714 
	C220.105286,254.122910 209.792831,251.957840 199.822205,248.758011 
	C194.829758,247.155792 189.722687,245.113861 185.500198,242.102951 
	C179.704041,237.969894 179.644043,230.812469 184.075150,225.375366 
	C191.822662,215.868927 215.764984,215.535294 222.104767,225.041595 
	C224.960480,229.323624 227.679947,233.696533 230.904526,238.605743 
M278.259644,368.173340 
	C282.778687,367.931763 285.937927,365.618225 287.065857,361.337708 
	C287.986938,357.842102 288.460632,354.147003 288.540222,350.527283 
	C288.741669,341.370300 288.593414,332.205902 288.626953,323.044647 
	C288.632568,321.514862 288.847778,319.985870 288.966156,318.456482 
	C289.386841,318.275574 289.807556,318.094666 290.228271,317.913757 
	C291.000641,318.983276 291.689423,320.126465 292.557770,321.111420 
	C309.547943,340.383392 341.215820,335.013641 352.588318,312.933807 
	C362.259857,294.156403 362.783691,274.666229 353.056396,255.815903 
	C341.198792,232.837219 311.428467,228.622086 293.001587,246.706741 
	C291.863159,247.824036 290.686127,248.902008 289.005005,250.492035 
	C288.595947,247.921204 288.391815,246.117523 288.012695,244.351410 
	C286.787323,238.643295 282.205872,235.025818 276.556244,235.228058 
	C271.051331,235.425110 267.078339,239.027008 266.181458,244.884003 
	C265.856079,247.009003 265.905243,249.202209 265.904266,251.364349 
	C265.889008,284.345337 265.888947,317.326294 265.903625,350.307281 
	C265.904724,352.803741 265.857666,355.322418 266.153107,357.792480 
	C267.076599,365.512299 269.607941,367.789978 278.259644,368.173340 
z"/>
<path fill="#252A3F" opacity="1.000000" stroke="none" 
	d="
M442.065247,187.849503 
	C441.234985,187.898193 440.404694,187.989532 439.574432,187.989502 
	C317.340546,187.984528 195.106659,187.972931 72.420715,187.446854 
	C71.979179,144.685257 71.987144,102.438438 72.008125,60.191620 
	C72.009117,58.198467 71.846771,56.149841 72.230751,54.220654 
	C77.248672,29.009811 91.564392,11.804584 116.113525,3.419010 
	C117.520302,2.938476 118.709526,1.821033 120.000000,1.000003 
	C180.688095,1.000000 241.376205,1.000000 302.575012,1.342486 
	C308.000000,5.564107 313.297333,9.049014 317.764099,13.388790 
	C340.314117,35.297813 362.701508,57.375317 385.039734,79.500908 
	C401.479431,95.784058 417.772156,112.215790 434.095215,128.616287 
	C439.379242,133.925339 442.019897,140.361359 442.010406,147.896973 
	C441.993591,161.214447 442.043335,174.531982 442.065247,187.849503 
z"/>
<path fill="#252A3F" opacity="1.000000" stroke="none" 
	d="
M71.934921,376.150513 
	C72.765190,376.101776 73.595459,376.010315 74.425728,376.010345 
	C196.660645,376.015289 318.895569,376.026886 441.580933,376.553040 
	C442.020905,401.685150 441.493530,426.316010 442.140381,450.916016 
	C442.835114,477.336517 423.024536,502.573792 399.704651,510.011841 
	C397.992889,510.557800 396.561646,511.983368 395.000000,513.000000 
	C303.310699,513.000000 211.621384,513.000000 119.395546,512.651245 
	C116.804016,511.325653 114.821304,510.138184 112.682884,509.404480 
	C90.469887,501.783020 71.467590,476.883423 71.897980,452.091553 
	C72.337303,426.785278 71.956612,401.464783 71.934921,376.150513 
M363.858643,453.966248 
	C364.831482,453.066345 365.804352,452.166473 366.777191,451.266571 
	C365.648041,450.517548 364.603088,449.529327 363.363831,449.093231 
	C362.324554,448.727478 361.058563,449.000031 359.892975,449.000031 
	C291.285736,448.999084 222.678482,448.999023 154.071228,449.000000 
	C152.905640,449.000031 151.637161,448.725128 150.601089,449.094971 
	C149.365021,449.536224 148.328033,450.535156 147.204788,451.292480 
	C148.355133,452.188873 149.408386,453.284698 150.691086,453.909302 
	C151.501144,454.303802 152.653976,454.000000 153.653046,453.999969 
	C223.425949,453.997955 293.198853,453.994965 363.858643,453.966248 
M289.500000,464.001099 
	C306.643585,464.001099 323.788116,464.086975 340.929626,463.898712 
	C343.222626,463.873566 347.518402,462.268616 347.466095,461.723724 
	C347.046051,457.348907 343.276947,459.076355 340.834412,459.072205 
	C284.909790,458.977173 228.984970,458.998810 173.060181,458.999847 
	C171.895157,458.999847 170.626465,458.724243 169.591873,459.095154 
	C168.357559,459.537750 167.323807,460.539642 166.203171,461.299255 
	C167.355453,462.193512 168.390915,463.395691 169.694809,463.890320 
	C170.860886,464.332672 172.322998,464.000244 173.654480,464.000275 
	C211.936325,464.001251 250.218155,464.001099 289.500000,464.001099 
M321.312042,474.001434 
	C322.643250,473.995331 324.102448,474.330566 325.271606,473.892273 
	C326.581696,473.401215 327.629303,472.209991 328.791138,471.323456 
	C327.678284,470.555878 326.654480,469.543335 325.425079,469.096283 
	C324.393921,468.721313 323.122925,468.999542 321.958130,468.999542 
	C278.691406,468.998413 235.424698,468.998444 192.157990,468.999390 
	C190.993179,468.999420 189.685852,468.677795 188.698822,469.099792 
	C187.401352,469.654633 186.356003,470.799072 185.202225,471.689941 
	C186.321106,472.453064 187.348373,473.505066 188.584900,473.897247 
	C189.796585,474.281494 191.221298,474.000458 192.552505,474.000488 
	C235.153580,474.001617 277.754639,474.001434 321.312042,474.001434 
z"/>
<path fill="#000000" opacity="1.000000" stroke="none" 
	d="
M442.526001,187.913010 
	C442.043335,174.531982 441.993591,161.214447 442.010406,147.896973 
	C442.019897,140.361359 439.379242,133.925339 434.095215,128.616287 
	C417.772156,112.215790 401.479431,95.784058 385.039734,79.500908 
	C362.701508,57.375317 340.314117,35.297813 317.764099,13.388790 
	C313.297333,9.049014 308.000000,5.564107 303.042847,1.342486 
	C372.928375,1.000000 442.856781,1.000000 513.000000,1.000000 
	C513.000000,73.354088 513.000000,145.708389 513.000000,218.531342 
	C512.337524,218.554260 511.303925,218.252533 511.066925,217.641724 
	C505.032257,202.087967 493.956848,192.185455 477.725464,188.475403 
	C473.619263,187.536835 469.166229,188.051636 464.871613,188.015289 
	C457.577087,187.953568 450.281738,187.984528 442.526001,187.913010 
z"/>
<path fill="#000000" opacity="1.000000" stroke="none" 
	d="
M119.531342,1.000003 
	C118.709526,1.821033 117.520302,2.938476 116.113525,3.419010 
	C91.564392,11.804584 77.248672,29.009811 72.230751,54.220654 
	C71.846771,56.149841 72.009117,58.198467 72.008125,60.191620 
	C71.987144,102.438438 71.979179,144.685257 71.951591,187.390823 
	C62.971210,187.899887 53.978195,188.439697 45.050835,187.897812 
	C26.905828,186.796432 9.120723,200.386322 2.971079,217.268555 
	C2.659069,218.125137 2.034374,218.867813 1.277633,219.331757 
	C1.000000,146.427765 1.000000,73.855522 1.000000,1.000000 
	C40.353775,1.000000 79.708229,1.000000 119.531342,1.000003 
z"/>
<path fill="#000000" opacity="1.000000" stroke="none" 
	d="
M71.474136,376.087006 
	C71.956612,401.464783 72.337303,426.785278 71.897980,452.091553 
	C71.467590,476.883423 90.469887,501.783020 112.682884,509.404480 
	C114.821304,510.138184 116.804016,511.325653 118.929504,512.651245 
	C79.726913,513.000000 40.453835,513.000000 1.000000,513.000000 
	C1.000000,457.312561 1.000000,401.624939 1.000002,345.468658 
	C1.660085,345.452057 2.677453,345.759308 2.927938,346.377411 
	C8.996351,361.351196 19.215107,371.662018 35.413036,375.034821 
	C39.213573,375.826172 43.201355,375.891144 47.108810,375.959930 
	C55.074898,376.100159 63.044945,376.015503 71.474136,376.087006 
z"/>
<path fill="#000000" opacity="1.000000" stroke="none" 
	d="
M395.468658,513.000000 
	C396.561646,511.983368 397.992889,510.557800 399.704651,510.011841 
	C423.024536,502.573792 442.835114,477.336517 442.140381,450.916016 
	C441.493530,426.316010 442.020905,401.685150 442.048523,376.609131 
	C451.027313,376.100098 460.024139,375.519440 468.943298,376.110657 
	C487.136169,377.316559 505.492096,363.076294 511.064636,346.225311 
	C511.298584,345.517853 511.979004,344.958069 512.725708,344.664734 
	C513.000000,400.914215 513.000000,456.828461 513.000000,513.000000 
	C473.979492,513.000000 434.958405,513.000000 395.468658,513.000000 
z"/>
<path fill="#FEFEFF" opacity="1.000000" stroke="none" 
	d="
M230.682877,238.316986 
	C227.679947,233.696533 224.960480,229.323624 222.104767,225.041595 
	C215.764984,215.535294 191.822662,215.868927 184.075150,225.375366 
	C179.644043,230.812469 179.704041,237.969894 185.500198,242.102951 
	C189.722687,245.113861 194.829758,247.155792 199.822205,248.758011 
	C209.792831,251.957840 220.105286,254.122910 230.000443,257.519714 
	C241.885574,261.599579 251.883209,268.182129 255.428909,281.414520 
	C260.230743,299.334778 252.834625,317.581116 236.253830,325.858704 
	C216.648666,335.646149 196.291199,335.731720 176.446167,326.689209 
	C164.454132,321.224915 156.942368,311.315002 154.648193,298.041199 
	C153.476395,291.261383 156.600677,285.826996 162.245300,284.050934 
	C168.130844,282.199066 173.234329,284.606262 176.545929,290.972382 
	C178.386063,294.509766 179.961151,298.183899 181.734146,301.757507 
	C189.976730,318.371216 218.828964,315.961731 227.380249,304.738251 
	C233.479782,296.732666 232.034576,286.053864 222.823471,281.270630 
	C216.288864,277.877289 208.781845,276.340057 201.683212,274.053986 
	C194.093124,271.609711 186.313126,269.668854 178.899872,266.779907 
	C164.479202,261.160217 157.003113,250.312271 156.921310,235.983368 
	C156.838531,221.484604 164.331223,210.171326 178.695297,204.440781 
	C194.917831,197.968781 211.602264,197.633270 228.023376,203.459061 
	C238.977722,207.345352 247.484848,214.472992 250.531799,226.373947 
	C252.920135,235.702515 247.315048,243.738419 238.838562,242.865967 
	C236.076981,242.581726 233.542740,240.088608 230.682877,238.316986 
z"/>
<path fill="#FDFDFF" opacity="1.000000" stroke="none" 
	d="
M277.831360,368.200317 
	C269.607941,367.789978 267.076599,365.512299 266.153107,357.792480 
	C265.857666,355.322418 265.904724,352.803741 265.903625,350.307281 
	C265.888947,317.326294 265.889008,284.345337 265.904266,251.364349 
	C265.905243,249.202209 265.856079,247.009003 266.181458,244.884003 
	C267.078339,239.027008 271.051331,235.425110 276.556244,235.228058 
	C282.205872,235.025818 286.787323,238.643295 288.012695,244.351410 
	C288.391815,246.117523 288.595947,247.921204 289.005005,250.492035 
	C290.686127,248.902008 291.863159,247.824036 293.001587,246.706741 
	C311.428467,228.622086 341.198792,232.837219 353.056396,255.815903 
	C362.783691,274.666229 362.259857,294.156403 352.588318,312.933807 
	C341.215820,335.013641 309.547943,340.383392 292.557770,321.111420 
	C291.689423,320.126465 291.000641,318.983276 290.228271,317.913757 
	C289.807556,318.094666 289.386841,318.275574 288.966156,318.456482 
	C288.847778,319.985870 288.632568,321.514862 288.626953,323.044647 
	C288.593414,332.205902 288.741669,341.370300 288.540222,350.527283 
	C288.460632,354.147003 287.986938,357.842102 287.065857,361.337708 
	C285.937927,365.618225 282.778687,367.931763 277.831360,368.200317 
M328.480255,306.920197 
	C337.276093,294.528137 337.394196,281.074829 332.555237,267.432098 
	C329.548889,258.956116 323.170959,253.599457 313.841614,253.257446 
	C304.432739,252.912537 297.290375,257.478760 293.435303,265.868713 
	C288.112640,277.452576 287.966980,289.611938 293.298218,301.190948 
	C299.973022,315.688141 316.554779,318.432831 328.480255,306.920197 
z"/>
<path fill="#7272D6" opacity="1.000000" stroke="none" 
	d="
M363.415192,453.979126 
	C293.198853,453.994965 223.425949,453.997955 153.653046,453.999969 
	C152.653976,454.000000 151.501144,454.303802 150.691086,453.909302 
	C149.408386,453.284698 148.355133,452.188873 147.204803,451.292480 
	C148.328033,450.535156 149.365021,449.536224 150.601089,449.094971 
	C151.637161,448.725128 152.905640,449.000031 154.071228,449.000000 
	C222.678482,448.999023 291.285736,448.999084 359.892975,449.000031 
	C361.058563,449.000031 362.324554,448.727478 363.363831,449.093231 
	C364.603088,449.529327 365.648041,450.517548 366.777191,451.266571 
	C365.804352,452.166473 364.831482,453.066345 363.415192,453.979126 
z"/>
<path fill="#7272D6" opacity="1.000000" stroke="none" 
	d="
M289.000000,464.001099 
	C250.218155,464.001099 211.936325,464.001251 173.654480,464.000275 
	C172.322998,464.000244 170.860886,464.332672 169.694809,463.890320 
	C168.390915,463.395691 167.355453,462.193512 166.203171,461.299255 
	C167.323807,460.539642 168.357559,459.537750 169.591873,459.095154 
	C170.626465,458.724243 171.895157,458.999847 173.060181,458.999847 
	C228.984970,458.998810 284.909790,458.977173 340.834412,459.072205 
	C343.276947,459.076355 347.046051,457.348907 347.466095,461.723724 
	C347.518402,462.268616 343.222626,463.873566 340.929626,463.898712 
	C323.788116,464.086975 306.643585,464.001099 289.000000,464.001099 
z"/>
<path fill="#7272D6" opacity="1.000000" stroke="none" 
	d="
M320.833862,474.001434 
	C277.754639,474.001434 235.153580,474.001617 192.552505,474.000488 
	C191.221298,474.000458 189.796585,474.281494 188.584900,473.897247 
	C187.348373,473.505066 186.321106,472.453064 185.202225,471.689941 
	C186.356003,470.799072 187.401352,469.654633 188.698822,469.099792 
	C189.685852,468.677795 190.993179,468.999420 192.157990,468.999390 
	C235.424698,468.998444 278.691406,468.998413 321.958130,468.999542 
	C323.122925,468.999542 324.393921,468.721313 325.425079,469.096283 
	C326.654480,469.543335 327.678284,470.555878 328.791138,471.323425 
	C327.629303,472.209991 326.581696,473.401215 325.271606,473.892273 
	C324.102448,474.330566 322.643250,473.995331 320.833862,474.001434 
z"/>
<path fill="#7373D6" opacity="1.000000" stroke="none" 
	d="
M328.236481,307.190277 
	C316.554779,318.432831 299.973022,315.688141 293.298218,301.190948 
	C287.966980,289.611938 288.112640,277.452576 293.435303,265.868713 
	C297.290375,257.478760 304.432739,252.912537 313.841614,253.257446 
	C323.170959,253.599457 329.548889,258.956116 332.555237,267.432098 
	C337.394196,281.074829 337.276093,294.528137 328.236481,307.190277 
z"/>
</svg>